<svg width="75" height="75" viewBox="0 0 75 75" fill="none" xmlns="http://www.w3.org/2000/svg">
<path d="M37.467 7.50001C37.0238 7.49776 36.78 7.80001 36.7118 8.15401L34.8795 14.3355C30.517 14.8244 26.3827 16.5409 22.9568 19.2855C21.0533 18.252 19.1505 17.2133 17.2455 16.1858C16.893 15.996 16.584 16.0103 16.299 16.2975C16.0133 16.5848 16.0943 17.0078 16.2555 17.3123L19.3073 22.9335C16.5487 26.3638 14.823 30.5081 14.3318 34.8825C12.2513 35.4998 10.1678 36.1118 8.0895 36.7328C7.707 36.8475 7.49925 37.0763 7.5 37.4813C7.5015 37.8863 7.857 38.1285 8.187 38.2298L14.3288 40.0493C14.806 44.4334 16.5228 48.5908 19.278 52.0343C18.2393 53.9483 17.1945 55.8623 16.161 57.7778C15.9713 58.1303 15.9855 58.4378 16.2735 58.7235C16.56 59.0085 16.983 58.929 17.2875 58.7685L22.9403 55.7003C26.3695 58.4542 30.511 60.1767 34.8818 60.6668C35.4983 62.748 36.1118 64.8323 36.7328 66.9105C36.8475 67.293 37.0763 67.5008 37.4813 67.5C37.8863 67.4985 38.1285 67.143 38.2298 66.813L40.0493 60.6713C44.4433 60.1924 48.6087 58.4665 52.0538 55.6973L57.7297 58.7798C58.1415 58.9898 58.4198 59.0265 58.7348 58.7145C59.0505 58.4025 59.0093 58.0155 58.8075 57.717L55.7175 52.0223C58.4668 48.5822 60.1812 44.4313 60.6607 40.0538L66.8355 38.2238C67.275 38.0813 67.4977 37.911 67.5 37.467C67.5023 37.0238 67.2 36.78 66.846 36.7118L60.6435 34.8735C60.1536 30.5074 58.4354 26.3698 55.6882 22.941L58.7558 17.2928C58.965 16.8803 59.0017 16.6028 58.6897 16.287C58.6251 16.2175 58.5474 16.1615 58.461 16.1222C58.3747 16.083 58.2813 16.0612 58.1865 16.0583C58.0095 16.0588 57.8369 16.1138 57.6922 16.2158L52.0328 19.2885C48.5927 16.526 44.4351 14.8034 40.0493 14.3235L38.2238 8.16451C38.0813 7.72501 37.911 7.50226 37.467 7.50001V7.50001ZM37.4663 10.632V33.912C36.8598 33.9181 36.2647 34.0778 35.7368 34.3763L32.0025 29.6453L35.913 16.038L36.438 14.2073L37.4663 10.632ZM40.605 16.2C44.1286 16.7096 47.4694 18.09 50.325 20.2163L42.9773 24.2048L40.605 16.2ZM34.3223 16.2188L31.9643 24.174C29.5335 22.8525 27.1013 21.5363 24.6698 20.2155C27.508 18.1068 30.8241 16.7337 34.3223 16.2188V16.2188ZM18.4875 18.4875L30.189 30.165L30.183 30.1823C28.6928 30.624 27.204 31.0673 25.713 31.5083L21.222 23.4135L20.3048 21.7598L18.4875 18.4875ZM56.4735 18.501L53.9663 21.009L52.7115 22.263L44.7975 30.1778L44.7413 30.1613L43.4258 25.7243L51.5745 21.213L52.5555 20.6715L53.223 20.301L56.4735 18.501ZM54.765 24.642C56.8848 27.4863 58.2649 30.8127 58.7812 34.3223L50.7953 31.9553L54.765 24.642ZM20.2358 24.648L24.2033 31.956C21.5378 32.7435 18.8753 33.537 16.2105 34.326C16.7294 30.8163 18.1126 27.4905 20.2358 24.648V24.648ZM45.2798 31.9823L58.9612 35.9123L60.771 36.4328L64.3672 37.4663H41.0873C41.0813 36.8534 40.9183 36.2523 40.614 35.7203L45.2798 31.9823ZM33.9128 37.4663L33.9113 37.5C33.9113 38.0985 34.0613 38.6873 34.347 39.213L29.625 42.9308L24.9443 41.5898L16.0343 39.0398V39.0383L14.2058 38.5148L10.596 37.4813L33.9128 37.4663ZM58.8008 40.6043C58.2916 44.1248 56.9131 47.4629 54.7898 50.3168L50.805 42.9743L58.8008 40.6043ZM16.2083 40.6065L24.1935 42.9728C22.8623 45.4215 21.537 47.8718 20.2065 50.3205C18.0878 47.4647 16.7137 44.1263 16.2083 40.6065V40.6065ZM39.231 40.6418L42.951 45.3L41.5988 50.022L39.0375 58.965L38.514 60.7943L37.4805 64.404L37.4655 41.0865C38.097 41.088 38.7525 40.923 39.231 40.6418ZM49.2833 43.4243L53.7908 51.5693L54.7043 53.2185L56.52 56.499L53.9895 53.9678L52.7348 52.7138L44.7795 44.7585L49.2833 43.4243ZM30.177 44.7983C30.621 46.2983 31.0673 47.7953 31.5105 49.2953L23.421 53.7833L21.7658 54.7013L18.462 56.535L30.177 44.7983ZM42.9825 50.7728L50.3475 54.7725C47.4857 56.9026 44.137 58.2839 40.6058 58.791L42.9825 50.7728ZM31.9575 50.8043C32.745 53.4668 33.537 56.127 34.3253 58.7888C30.8186 58.2702 27.4957 56.8888 24.6548 54.7688L31.9575 50.8043Z" fill="white"/>
<path d="M34.5 6V0H35.9857L39.081 4.00725V0H40.5V6H38.9678L35.919 2.08725V6H34.5ZM34.5 73.0103L35.9497 72.9C36.0367 73.282 36.2128 73.5627 36.4778 73.7422C36.7463 73.9212 37.107 74.0107 37.56 74.0107C38.04 74.0107 38.4007 73.9317 38.6422 73.7737C38.8872 73.6127 39.0098 73.4255 39.0098 73.212C39.0098 73.075 38.9578 72.959 38.8538 72.864C38.7533 72.7665 38.5755 72.6823 38.3205 72.6113C38.1455 72.5638 37.748 72.4792 37.128 72.3577C36.329 72.2022 35.7685 72.011 35.4465 71.784C34.993 71.465 34.7662 71.0762 34.7662 70.6177C34.7662 70.3227 34.872 70.0473 35.0835 69.7913C35.2985 69.5328 35.6057 69.3362 36.0052 69.2017C36.4077 69.0667 36.8927 68.9993 37.4602 68.9993C38.3857 68.9993 39.0817 69.159 39.5482 69.4785C40.0182 69.7975 40.265 70.2233 40.2885 70.7558L38.7982 70.8075C38.7347 70.5095 38.5972 70.296 38.3857 70.167C38.1777 70.035 37.864 69.969 37.4445 69.969C37.0115 69.969 36.6725 70.039 36.4275 70.179C36.27 70.2685 36.1913 70.3885 36.1913 70.539C36.1913 70.6755 36.265 70.7928 36.4125 70.8908C36.6005 71.0143 37.057 71.1433 37.782 71.2778C38.507 71.4128 39.042 71.5528 39.387 71.6978C39.7365 71.8398 40.0085 72.036 40.203 72.2865C40.401 72.5345 40.5 72.8418 40.5 73.2083C40.5 73.5403 40.3825 73.8513 40.1475 74.1413C39.9125 74.4313 39.5803 74.6475 39.1508 74.79C38.7213 74.93 38.1863 75 37.5458 75C36.6123 75 35.8955 74.8312 35.3955 74.4937C34.8955 74.1537 34.597 73.6593 34.5 73.0103V73.0103ZM69 40.5V34.5H74.85V35.5148H70.593V36.8452H74.553V37.8562H70.593V39.489H75V40.5H69ZM1.092 40.5L0 34.5H0.945L1.63425 38.6212L2.46975 34.5H3.56775L4.3695 38.691L5.07 34.5H6L4.89 40.5H3.9105L3 36.0143L2.0925 40.4993L1.092 40.5Z" fill="white"/>
</svg>
