<svg width="44" height="50" viewBox="0 0 44 50" fill="none" xmlns="http://www.w3.org/2000/svg">
<path d="M-1.93119e-05 5H3.33331V2.33417C3.33331 1.05 4.29831 0 5.47498 0H16.195C17.3683 0 18.3333 1.05 18.3333 2.33417V5H38.3825L43.3333 15H39.8958V21.6667H40.4525L43.2291 25L40.4525 28.3333H39.8441V30.1233C39.8441 30.5758 39.495 30.9417 39.0625 30.9417C37.77 30.9417 36.7183 32.045 36.7183 33.4008C36.7183 34.7567 37.77 35.86 39.0625 35.86C40.355 35.86 41.4066 34.7567 41.4066 33.4008C41.4066 32.9483 41.7566 32.5825 42.1883 32.5825C42.6208 32.5825 42.97 32.9483 42.97 33.4008C42.9683 35.6625 41.2166 37.5 39.0625 37.5C36.9091 37.5 35.1558 35.6625 35.1558 33.4017C35.1558 31.4225 36.5 29.7658 38.2808 29.3867V28.3333H37.6733L34.8958 25L37.6733 21.6667H38.2291V15H18.3333V20.9992C18.3333 22.1058 17.6158 23.0333 16.6666 23.2717V50H14.4791V45L7.18748 47.5L14.4791 50H4.99998V23.2708C4.04998 23.0333 3.33331 22.1058 3.33331 20.9992V15H-1.93119e-05V12.5H1.73165L-1.93119e-05 9.2125V5ZM39.4641 12.5L37.5175 8.50083L35.4125 12.5H39.4641ZM35.7791 7.5H32.3183L34.0483 10.7875L35.7791 7.5V7.5ZM32.6841 12.5L30.9533 9.2125L29.2216 12.5H32.6841ZM29.5883 7.5H26.1275L27.8583 10.7875L29.5883 7.5ZM26.4925 12.5L24.7625 9.2125L23.0325 12.5H26.4925ZM23.3975 7.5H19.9366L21.6666 10.7875L23.3975 7.5ZM18.3333 12.5H20.3025L18.5725 9.2125L18.3333 9.66667V12.5ZM7.18748 45L14.4791 42.5L7.18748 40V45ZM14.4791 40V35L7.18748 37.5017L14.4791 40ZM7.18748 35L14.4791 32.5L7.18748 30V35ZM14.4791 30V25.0017L7.18748 27.5L14.4791 30ZM7.18748 25.0017L12.05 23.3333H7.18748V25.0017ZM5.93748 11.04C5.93748 11.8425 6.50081 12.5 7.18748 12.5H14.6891C15.3758 12.5 15.9375 11.8425 15.9375 11.04V3.965C15.9375 3.1575 15.3758 2.5 14.6891 2.5H7.18748C6.50081 2.5 5.93748 3.1575 5.93748 3.965V11.04V11.04ZM3.09581 10.7875L3.33331 10.3358V7.5H1.36581L3.09581 10.7875" fill="#FABC68"/>
</svg>
