<svg width="60" height="86" viewBox="0 0 60 86" fill="none" xmlns="http://www.w3.org/2000/svg">
<path d="M60 30.0111C60.0019 24.8463 58.6704 19.7686 56.1344 15.2694C53.5985 10.7702 49.9439 7.00185 45.5245 4.3292C41.1051 1.65655 36.0705 0.170108 30.9082 0.0137531C25.7459 -0.142601 20.6306 1.03643 16.0576 3.43672C11.4845 5.83701 7.60857 9.37725 4.80495 13.7148C2.00134 18.0523 0.364995 23.0401 0.0543294 28.1954C-0.256337 33.3508 0.769194 38.499 3.03165 43.1418C5.29411 47.7846 8.71686 51.7647 12.9686 54.6968L4.73215e-06 77.1539L9.66858 77.5525L14.8457 85.7253L29.7 59.9939C29.8029 59.9939 29.8971 60.011 30 60.011C30.1029 60.011 30.1971 59.9982 30.3 59.9939L45.1543 85.7253L50.4343 77.7282L60 77.1539L47.0314 54.6968C51.0326 51.9419 54.3038 48.2553 56.5631 43.9548C58.8223 39.6543 60.0019 34.8689 60 30.0111ZM8.57143 30.0111C8.57143 25.7729 9.8282 21.6299 12.1828 18.106C14.5374 14.5821 17.8841 11.8355 21.7996 10.2136C25.7152 8.59176 30.0238 8.1674 34.1805 8.99423C38.3372 9.82105 42.1554 11.8619 45.1523 14.8588C48.1491 17.8556 50.19 21.6738 51.0168 25.8305C51.8437 29.9873 51.4193 34.2959 49.7974 38.2114C48.1755 42.127 45.429 45.4737 41.9051 47.8283C38.3812 50.1829 34.2382 51.4396 30 51.4396C24.3168 51.4396 18.8664 49.182 14.8477 45.1633C10.8291 41.1447 8.57143 35.6943 8.57143 30.0111Z" fill="#EAA94B"/>
<path d="M30.0001 42.8682C37.1009 42.8682 42.8572 37.1119 42.8572 30.0111C42.8572 22.9103 37.1009 17.1539 30.0001 17.1539C22.8993 17.1539 17.1429 22.9103 17.1429 30.0111C17.1429 37.1119 22.8993 42.8682 30.0001 42.8682Z" fill="#EAA94B"/>
</svg>
