<svg width="75" height="75" viewBox="0 0 75 75" fill="none" xmlns="http://www.w3.org/2000/svg">
<path d="M65.625 20.3125V43.75H59.375V23.4375L43.75 12.5L28.125 23.4375V28.125H21.875V20.3125L43.75 4.6875L65.625 20.3125ZM48.4375 21.875H45.3125V25H48.4375V21.875ZM42.1875 21.875H39.0625V25H42.1875V21.875ZM48.4375 28.125H45.3125V31.25H48.4375V28.125ZM42.1875 28.125H39.0625V31.25H42.1875V28.125ZM59.375 50H53.125C53.125 46.25 50.7813 42.875 47.2813 41.5625L28.0313 34.375H3.125V68.75H21.875V64.25L43.75 70.3125L68.75 62.5V59.375C68.75 54.1875 64.5625 50 59.375 50ZM9.375 62.5V40.625H15.625V62.5H9.375ZM43.6563 63.7812L21.875 57.75V40.625H26.9062L45.0938 47.4063C46.1563 47.8125 46.875 48.8437 46.875 50C46.875 50 40.6562 49.8438 39.6875 49.5313L32.25 47.0625L30.2812 53L37.7187 55.4688C39.3125 56 40.9687 56.2813 42.6562 56.2813H59.375C60.5937 56.2813 61.6875 57 62.1875 58.0312L43.6563 63.7812V63.7812Z" fill="black"/>
</svg>
