<svg width="21" height="21" viewBox="0 0 21 21" fill="none" xmlns="http://www.w3.org/2000/svg">
<path d="M20.0575 6.65737C20.0463 5.84986 19.8888 5.05038 19.5921 4.29468C19.3348 3.65726 18.9419 3.07837 18.4384 2.59499C17.9349 2.11161 17.3318 1.73438 16.6679 1.4874C15.8908 1.20737 15.0699 1.05595 14.2401 1.0396C13.1716 0.993751 12.8329 0.980957 10.1208 0.980957C7.40865 0.980957 7.06103 0.980957 6.00039 1.0396C5.17093 1.05607 4.35039 1.20749 3.57369 1.4874C2.9096 1.73421 2.3065 2.11138 1.80295 2.59478C1.29941 3.07818 0.906526 3.65716 0.64943 4.29468C0.35715 5.04009 0.199767 5.82799 0.184082 6.62432C0.136325 7.65106 0.121887 7.97625 0.121887 10.5799C0.121887 13.1835 0.121887 13.5162 0.184082 14.5355C0.200741 15.333 0.357338 16.1198 0.64943 16.8672C0.906958 17.5046 1.30014 18.0833 1.80385 18.5665C2.30756 19.0497 2.91072 19.4267 3.5748 19.6734C4.34938 19.9647 5.17006 20.127 6.0015 20.1532C7.07102 20.1991 7.40976 20.2129 10.1219 20.2129C12.834 20.2129 13.1816 20.2129 14.2423 20.1532C15.0721 20.1375 15.8931 19.9865 16.6701 19.7065C17.3339 19.4592 17.9368 19.0819 18.4402 18.5986C18.9437 18.1152 19.3368 17.5365 19.5943 16.8992C19.8864 16.1529 20.043 15.366 20.0597 14.5675C20.1074 13.5418 20.1219 13.2166 20.1219 10.6119C20.1197 8.00823 20.1197 7.67771 20.0575 6.65737V6.65737ZM10.1141 15.5036C7.2776 15.5036 4.97973 13.2976 4.97973 10.5746C4.97973 7.8515 7.2776 5.64555 10.1141 5.64555C11.4758 5.64555 12.7818 6.16486 13.7447 7.08922C14.7076 8.01359 15.2485 9.26731 15.2485 10.5746C15.2485 11.8818 14.7076 13.1355 13.7447 14.0599C12.7818 14.9843 11.4758 15.5036 10.1141 15.5036V15.5036ZM15.4529 6.61259C15.2956 6.61273 15.1398 6.58309 14.9945 6.52538C14.8492 6.46767 14.7171 6.38302 14.6059 6.27626C14.4947 6.16951 14.4066 6.04275 14.3464 5.90324C14.2863 5.76373 14.2555 5.61421 14.2556 5.46323C14.2556 5.31237 14.2866 5.16298 14.3467 5.0236C14.4068 4.88421 14.495 4.75757 14.6061 4.65089C14.7172 4.54421 14.8492 4.45959 14.9943 4.40186C15.1395 4.34412 15.2951 4.31441 15.4523 4.31441C15.6094 4.31441 15.7651 4.34412 15.9102 4.40186C16.0554 4.45959 16.1874 4.54421 16.2985 4.65089C16.4096 4.75757 16.4978 4.88421 16.5579 5.0236C16.618 5.16298 16.649 5.31237 16.649 5.46323C16.649 6.09868 16.1137 6.61259 15.4529 6.61259Z" fill="white"/>
<path d="M10.1141 13.7764C11.9561 13.7764 13.4493 12.3429 13.4493 10.5746C13.4493 8.80629 11.9561 7.3728 10.1141 7.3728C8.27214 7.3728 6.77893 8.80629 6.77893 10.5746C6.77893 12.3429 8.27214 13.7764 10.1141 13.7764Z" fill="white"/>
</svg>
