<svg width="65" height="65" viewBox="0 0 65 65" fill="none" xmlns="http://www.w3.org/2000/svg">
<path d="M22.7861 30.2791L21.7028 29.1957C21.2783 28.7713 20.8973 28.3056 20.5653 27.8055H24.8625C26.0328 27.8174 27.1854 27.5199 28.2038 26.9433C29.2222 26.3666 30.0703 25.5312 30.6621 24.5216C31.254 23.512 31.5687 22.3639 31.5744 21.1936C31.58 20.0233 31.2765 18.8722 30.6944 17.8569L26.9208 11.3208L31.2181 6.93325C32.911 5.2408 35.2069 4.29004 37.6007 4.29004C39.9945 4.29004 42.2904 5.2408 43.9833 6.93325L59.4208 22.3708C61.1133 24.0637 62.064 26.3595 62.064 28.7534C62.064 31.1472 61.1133 33.4431 59.4208 35.136L49.9236 44.6332C48.2307 46.3257 45.9348 47.2765 43.541 47.2765C41.1471 47.2765 38.8513 46.3257 37.1583 44.6332L36.3458 43.8208L32.5542 47.793H26.3431V53.2096H19.6806V56.1527L14.4444 61.3888H3.61111V49.5624L22.7861 30.2791ZM38.2417 18.3805L48.0819 28.2388C48.4202 28.5751 48.8779 28.7638 49.3549 28.7638C49.8319 28.7638 50.2895 28.5751 50.6278 28.2388L51.35 27.5166C51.6863 27.1783 51.875 26.7207 51.875 26.2437C51.875 25.7667 51.6863 25.309 51.35 24.9707L41.5278 15.0944C41.1895 14.7581 40.7319 14.5693 40.2549 14.5693C39.7779 14.5693 39.3202 14.7581 38.9819 15.0944L38.2597 15.8166C38.0893 15.9832 37.9536 16.182 37.8604 16.4014C37.7671 16.6207 37.7183 16.8564 37.7166 17.0948C37.7149 17.3331 37.7605 17.5695 37.8506 17.7901C37.9407 18.0108 38.0736 18.2114 38.2417 18.3805V18.3805ZM7.22222 57.7777H12.8917L16.0875 54.5999V49.5444H22.7319V44.1277H31.0556L33.8 41.2207L25.2778 32.8249L7.22222 51.061V57.7777Z" fill="black"/>
<path d="M16.5208 2.05821L26.8486 19.861C27.0889 20.2137 27.2268 20.626 27.2471 21.0523C27.2675 21.4785 27.1693 21.9021 26.9637 22.276C26.758 22.6499 26.4528 22.9596 26.082 23.1707C25.7111 23.3819 25.289 23.4862 24.8625 23.4721H4.18889C3.76237 23.4862 3.34029 23.3819 2.96942 23.1707C2.59855 22.9596 2.29338 22.6499 2.08772 22.276C1.88206 21.9021 1.78395 21.4785 1.80426 21.0523C1.82457 20.626 1.9625 20.2137 2.20278 19.861L12.5306 2.05821C12.7342 1.70984 13.0256 1.42087 13.3756 1.22006C13.7256 1.01924 14.1222 0.913574 14.5257 0.913574C14.9292 0.913574 15.3258 1.01924 15.6758 1.22006C16.0258 1.42087 16.3172 1.70984 16.5208 2.05821V2.05821Z" fill="black"/>
</svg>
