<svg width="59" height="60" viewBox="0 0 59 60" fill="none" xmlns="http://www.w3.org/2000/svg">
<path d="M40.6587 29.3447L40.6303 29.4203C40.6392 29.3975 40.6463 29.3741 40.6551 29.3513L40.6587 29.3447V29.3447Z" fill="black"/>
<path d="M29.5012 0C19.7791 0 11.8 8.088 11.8 17.9532C11.8 21.7764 13.0036 25.3392 15.0332 28.2576L14.9606 28.1424L26.2922 48.0612L26.3494 48.1374C26.806 48.7434 27.258 49.2318 27.8049 49.5996C28.3518 49.9674 29.0522 50.1996 29.7401 50.1294C31.1148 49.989 31.9137 49.023 32.6518 48.0054L32.6978 47.9424L45.1905 26.322L45.2005 26.304C45.4996 25.755 45.7161 25.2012 45.9014 24.6648C46.7581 22.5344 47.1992 20.2549 47.2 17.9532C47.2 8.088 39.2232 0 29.5012 0ZM29.5012 3C37.616 3 44.25 9.7308 44.25 17.9532C44.2505 19.8737 43.8817 21.7758 43.1644 23.5524L43.1496 23.5896L43.1367 23.6286C42.9815 24.0828 42.8128 24.495 42.6181 24.8526L30.2522 46.2522C29.7053 46.9848 29.323 47.1582 29.4457 47.145C29.5088 47.139 29.5672 47.1894 29.4321 47.0982C29.3029 47.0112 29.0392 46.7562 28.7265 46.3506L17.4817 26.58L17.4422 26.5242C15.7471 24.0882 14.75 21.138 14.75 17.9532C14.75 9.7314 21.3863 3 29.5012 3ZM29.5012 7.71C23.9186 7.71 19.4033 12.2856 19.4033 17.9532C19.4033 23.6208 23.9192 28.1964 29.5012 28.1964C35.0832 28.1964 39.5967 23.6202 39.5967 17.9532C39.5967 12.2856 35.0832 7.71 29.5012 7.71V7.71ZM29.5012 10.71C33.5232 10.71 36.6467 13.881 36.6467 17.9532C36.6467 22.0254 33.5238 25.1964 29.5012 25.1964C25.4785 25.1964 22.3533 22.0248 22.3533 17.9532C22.3533 13.881 25.4791 10.71 29.5012 10.71V10.71Z" fill="black"/>
<path d="M20.0635 41.4341C11.7292 42.6317 5.89999 45.4967 5.89999 49.7141C5.89999 55.3949 15.6397 59.9999 29.5 59.9999C43.3603 59.9999 53.1 55.3949 53.1 49.7141C53.1 45.4967 47.2714 42.6317 38.9376 41.4341L37.783 43.4333C44.0641 44.3195 48.38 46.1819 48.38 48.3431C48.38 51.3731 39.9271 53.8289 29.5 53.8289C19.0729 53.8289 10.62 51.3731 10.62 48.3431C10.6194 46.1891 14.9069 44.3285 21.2075 43.4387C20.827 42.7703 20.4441 42.1031 20.0629 41.4341H20.0635Z" fill="black"/>
</svg>
