<svg width="66" height="66" viewBox="0 0 66 66" fill="none" xmlns="http://www.w3.org/2000/svg">
<path d="M32.2265 6.27002H6.24324C5.38308 6.27002 4.55815 6.59309 3.94992 7.16817C3.3417 7.74325 3 8.52322 3 9.3365V59.9334C3 60.7467 3.3417 61.5267 3.94992 62.1018C4.55815 62.6768 5.38308 62.9999 6.24324 62.9999H59.7568C60.6169 62.9999 61.4418 62.6768 62.0501 62.1018C62.6583 61.5267 63 60.7467 63 59.9334V9.3365C63 8.52322 62.6583 7.74325 62.0501 7.16817C61.4418 6.59309 60.6169 6.27002 59.7568 6.27002H51.733" stroke="white" stroke-width="4.4" stroke-linecap="round" stroke-linejoin="round"/>
<line x1="4.68256" y1="55.8916" x2="61.8914" y2="46.9176" stroke="white" stroke-width="4.04" stroke-linecap="round"/>
<path d="M50.4973 36.2575L63 34.436M3 43.1786L35.1405 38.4945M23.1211 40.247L17.0562 6.2704M41.9805 3C37.8715 3 33.9308 4.54333 31.0254 7.29047C28.1199 10.0376 26.4876 13.7635 26.4876 17.6486C26.4876 29.1141 38.3465 42.9317 41.4178 46.3202C41.5063 46.4179 41.6161 46.4962 41.7398 46.5496C41.8635 46.603 41.998 46.6303 42.134 46.6296C42.27 46.6289 42.4042 46.6001 42.5273 46.5454C42.6503 46.4906 42.7592 46.4111 42.8465 46.3125C45.8659 42.9148 57.4735 29.1065 57.4735 17.6501C57.4737 15.7263 57.0731 13.8213 56.2946 12.0439C55.5161 10.2664 54.375 8.65142 52.9363 7.29101C51.4976 5.9306 49.7896 4.85146 47.9098 4.1152C46.03 3.37895 44.0152 3 41.9805 3V3ZM41.9805 23.1238C40.8355 23.1238 39.7163 22.8028 38.7642 22.2013C37.8122 21.5998 37.0702 20.745 36.632 19.7448C36.1939 18.7446 36.0792 17.644 36.3026 16.5823C36.526 15.5205 37.0773 14.5451 37.887 13.7796C38.6966 13.0141 39.7281 12.4928 40.8511 12.2816C41.9741 12.0704 43.1381 12.1788 44.196 12.5931C45.2538 13.0074 46.1579 13.709 46.7941 14.6091C47.4302 15.5092 47.7697 16.5675 47.7697 17.6501C47.7697 18.3689 47.62 19.0807 47.3291 19.7448C47.0381 20.4089 46.6117 21.0123 46.0741 21.5206C45.5365 22.0289 44.8983 22.432 44.196 22.7071C43.4936 22.9822 42.7408 23.1238 41.9805 23.1238V23.1238Z" stroke="white" stroke-width="4.04" stroke-linecap="round" stroke-linejoin="round"/>
</svg>
