<svg width="31" height="20" viewBox="0 0 31 20" fill="none" xmlns="http://www.w3.org/2000/svg">
<path d="M0 1.42143C0 0.635714 0.6913 0 1.54225 0H13.9577C14.3668 1.12351e-08 14.7591 0.149757 15.0483 0.416327C15.3375 0.682896 15.5 1.04444 15.5 1.42143C15.5 1.79841 15.3375 2.15996 15.0483 2.42653C14.7591 2.6931 14.3668 2.84286 13.9577 2.84286H1.54225C1.13322 2.84286 0.740943 2.6931 0.451715 2.42653C0.162487 2.15996 0 1.79841 0 1.42143ZM0 10C0 9.21429 0.6913 8.57857 1.54225 8.57857H29.4577C29.8668 8.57857 30.2591 8.72833 30.5483 8.9949C30.8375 9.26147 31 9.62301 31 10C31 10.377 30.8375 10.7385 30.5483 11.0051C30.2591 11.2717 29.8668 11.4214 29.4577 11.4214H1.54225C1.13322 11.4214 0.740943 11.2717 0.451715 11.0051C0.162487 10.7385 0 10.377 0 10ZM1.54225 17.1571C1.13322 17.1571 0.740943 17.3069 0.451715 17.5735C0.162487 17.84 0 18.2016 0 18.5786C0 18.9556 0.162487 19.3171 0.451715 19.5837C0.740943 19.8502 1.13322 20 1.54225 20H20.1577C20.5668 20 20.9591 19.8502 21.2483 19.5837C21.5375 19.3171 21.7 18.9556 21.7 18.5786C21.7 18.2016 21.5375 17.84 21.2483 17.5735C20.9591 17.3069 20.5668 17.1571 20.1577 17.1571H1.54225Z" fill="white"/>
</svg>
