<svg width="24" height="36" viewBox="0 0 20 32" fill="none" xmlns="http://www.w3.org/2000/svg">
<path d="M17.7778 0.444458H2.22222C1.63285 0.444458 1.06762 0.678584 0.650874 1.09533C0.234127 1.51208 0 2.07731 0 2.66668V29.3333C0 29.9227 0.234127 30.4879 0.650874 30.9047C1.06762 31.3214 1.63285 31.5556 2.22222 31.5556H17.7778C18.3671 31.5556 18.9324 31.3214 19.3491 30.9047C19.7659 30.4879 20 29.9227 20 29.3333V2.66668C20 2.07731 19.7659 1.51208 19.3491 1.09533C18.9324 0.678584 18.3671 0.444458 17.7778 0.444458V0.444458ZM11.1111 29.3333H8.88889V27.1111H11.1111V29.3333ZM2.22222 24.8889V2.66668H17.7778V24.8889H2.22222Z" fill="white"/>
</svg>
