<svg width="60" height="60" viewBox="0 0 60 60" fill="none" xmlns="http://www.w3.org/2000/svg">
<path d="M13.8468 0C12.0107 0 10.2498 0.729393 8.95148 2.02772C7.65315 3.32605 6.92375 5.08696 6.92375 6.92308V41.5385C6.92375 43.3746 7.65315 45.1355 8.95148 46.4338C10.2498 47.7321 12.0107 48.4615 13.8468 48.4615V49.3985C13.8468 51.3023 13.3784 52.8831 12.6214 53.8708C11.8622 54.8538 10.9045 55.3846 9.23145 55.3846C7.55837 55.3846 6.60068 54.8538 5.84145 53.8708C5.08452 52.8854 4.61606 51.3 4.61606 49.3985V38.2938C4.6246 37.9432 4.55308 37.5952 4.40694 37.2763C4.2608 36.9574 4.04388 36.676 3.77268 36.4535C3.50148 36.231 3.18312 36.0733 2.84182 35.9923C2.50051 35.9113 2.14523 35.9092 1.80298 35.9862C1.28199 36.1029 0.817597 36.3967 0.488954 36.8175C0.160312 37.2383 -0.0122492 37.7601 0.00067683 38.2938V49.3985C0.00067683 52.0846 0.681446 54.66 2.23683 56.6838C3.79222 58.7031 6.31222 60 9.23145 60C12.1507 60 14.6707 58.7031 16.2261 56.6815C17.7814 54.6623 18.4622 52.0846 18.4622 49.3985V48.4615C20.2983 48.4615 22.0592 47.7321 23.3576 46.4338C24.6559 45.1355 25.3853 43.3746 25.3853 41.5385V6.92308C25.3853 5.08696 24.6559 3.32605 23.3576 2.02772C22.0592 0.729393 20.2983 0 18.4622 0L13.8468 0ZM34.6161 0C32.7799 0 31.019 0.729393 29.7207 2.02772C28.4224 3.32605 27.693 5.08696 27.693 6.92308V41.5385C27.693 43.3746 28.4224 45.1355 29.7207 46.4338C31.019 47.7321 32.7799 48.4615 34.6161 48.4615H50.7699C54.5938 48.4615 59.7838 45.4315 59.7838 24.2308C59.7838 3.03 54.5938 0 50.7699 0H34.6161ZM35.7699 6.92308H51.9238C52.2298 6.92308 52.5233 7.04464 52.7396 7.26103C52.956 7.47742 53.0776 7.7709 53.0776 8.07692V15C53.0776 15.306 52.956 15.5995 52.7396 15.8159C52.5233 16.0323 52.2298 16.1538 51.9238 16.1538H35.7699C35.4639 16.1538 35.1704 16.0323 34.954 15.8159C34.7376 15.5995 34.6161 15.306 34.6161 15V8.07692C34.6161 7.7709 34.7376 7.47742 34.954 7.26103C35.1704 7.04464 35.4639 6.92308 35.7699 6.92308V6.92308ZM35.7699 20.7692H38.0776C38.3836 20.7692 38.6771 20.8908 38.8935 21.1072C39.1099 21.3236 39.2314 21.6171 39.2314 21.9231V24.2308C39.2314 24.5368 39.1099 24.8303 38.8935 25.0467C38.6771 25.2631 38.3836 25.3846 38.0776 25.3846H35.7699C35.4639 25.3846 35.1704 25.2631 34.954 25.0467C34.7376 24.8303 34.6161 24.5368 34.6161 24.2308V21.9231C34.6161 21.6171 34.7376 21.3236 34.954 21.1072C35.1704 20.8908 35.4639 20.7692 35.7699 20.7692ZM42.693 20.7692H45.0007C45.3067 20.7692 45.6002 20.8908 45.8166 21.1072C46.033 21.3236 46.1545 21.6171 46.1545 21.9231V24.2308C46.1545 24.5368 46.033 24.8303 45.8166 25.0467C45.6002 25.2631 45.3067 25.3846 45.0007 25.3846H42.693C42.387 25.3846 42.0935 25.2631 41.8771 25.0467C41.6607 24.8303 41.5391 24.5368 41.5391 24.2308V21.9231C41.5391 21.6171 41.6607 21.3236 41.8771 21.1072C42.0935 20.8908 42.387 20.7692 42.693 20.7692ZM49.6161 20.7692H51.9238C52.2298 20.7692 52.5233 20.8908 52.7396 21.1072C52.956 21.3236 53.0776 21.6171 53.0776 21.9231V24.2308C53.0776 24.5368 52.956 24.8303 52.7396 25.0467C52.5233 25.2631 52.2298 25.3846 51.9238 25.3846H49.6161C49.31 25.3846 49.0166 25.2631 48.8002 25.0467C48.5838 24.8303 48.4622 24.5368 48.4622 24.2308V21.9231C48.4622 21.6171 48.5838 21.3236 48.8002 21.1072C49.0166 20.8908 49.31 20.7692 49.6161 20.7692ZM35.7699 27.6923H38.0776C38.3836 27.6923 38.6771 27.8139 38.8935 28.0303C39.1099 28.2466 39.2314 28.5401 39.2314 28.8462V31.1538C39.2314 31.4599 39.1099 31.7534 38.8935 31.9697C38.6771 32.1861 38.3836 32.3077 38.0776 32.3077H35.7699C35.4639 32.3077 35.1704 32.1861 34.954 31.9697C34.7376 31.7534 34.6161 31.4599 34.6161 31.1538V28.8462C34.6161 28.5401 34.7376 28.2466 34.954 28.0303C35.1704 27.8139 35.4639 27.6923 35.7699 27.6923ZM42.693 27.6923H45.0007C45.3067 27.6923 45.6002 27.8139 45.8166 28.0303C46.033 28.2466 46.1545 28.5401 46.1545 28.8462V31.1538C46.1545 31.4599 46.033 31.7534 45.8166 31.9697C45.6002 32.1861 45.3067 32.3077 45.0007 32.3077H42.693C42.387 32.3077 42.0935 32.1861 41.8771 31.9697C41.6607 31.7534 41.5391 31.4599 41.5391 31.1538V28.8462C41.5391 28.5401 41.6607 28.2466 41.8771 28.0303C42.0935 27.8139 42.387 27.6923 42.693 27.6923ZM49.6161 27.6923H51.9238C52.2298 27.6923 52.5233 27.8139 52.7396 28.0303C52.956 28.2466 53.0776 28.5401 53.0776 28.8462V31.1538C53.0776 31.4599 52.956 31.7534 52.7396 31.9697C52.5233 32.1861 52.2298 32.3077 51.9238 32.3077H49.6161C49.31 32.3077 49.0166 32.1861 48.8002 31.9697C48.5838 31.7534 48.4622 31.4599 48.4622 31.1538V28.8462C48.4622 28.5401 48.5838 28.2466 48.8002 28.0303C49.0166 27.8139 49.31 27.6923 49.6161 27.6923ZM35.7699 34.6154H38.0776C38.3836 34.6154 38.6771 34.7369 38.8935 34.9533C39.1099 35.1697 39.2314 35.4632 39.2314 35.7692V38.0769C39.2314 38.3829 39.1099 38.6764 38.8935 38.8928C38.6771 39.1092 38.3836 39.2308 38.0776 39.2308H35.7699C35.4639 39.2308 35.1704 39.1092 34.954 38.8928C34.7376 38.6764 34.6161 38.3829 34.6161 38.0769V35.7692C34.6161 35.4632 34.7376 35.1697 34.954 34.9533C35.1704 34.7369 35.4639 34.6154 35.7699 34.6154ZM42.693 34.6154H45.0007C45.3067 34.6154 45.6002 34.7369 45.8166 34.9533C46.033 35.1697 46.1545 35.4632 46.1545 35.7692V38.0769C46.1545 38.3829 46.033 38.6764 45.8166 38.8928C45.6002 39.1092 45.3067 39.2308 45.0007 39.2308H42.693C42.387 39.2308 42.0935 39.1092 41.8771 38.8928C41.6607 38.6764 41.5391 38.3829 41.5391 38.0769V35.7692C41.5391 35.4632 41.6607 35.1697 41.8771 34.9533C42.0935 34.7369 42.387 34.6154 42.693 34.6154ZM49.6161 34.6154H51.9238C52.2298 34.6154 52.5233 34.7369 52.7396 34.9533C52.956 35.1697 53.0776 35.4632 53.0776 35.7692V38.0769C53.0776 38.3829 52.956 38.6764 52.7396 38.8928C52.5233 39.1092 52.2298 39.2308 51.9238 39.2308H49.6161C49.31 39.2308 49.0166 39.1092 48.8002 38.8928C48.5838 38.6764 48.4622 38.3829 48.4622 38.0769V35.7692C48.4622 35.4632 48.5838 35.1697 48.8002 34.9533C49.0166 34.7369 49.31 34.6154 49.6161 34.6154Z" fill="white"/>
</svg>
