<svg width="80" height="80" viewBox="0 0 80 80" fill="none" xmlns="http://www.w3.org/2000/svg">
<path d="M44.1778 6.66675H13.6C12.3505 6.66675 11.1522 7.1631 10.2687 8.0466C9.38523 8.9301 8.88889 10.1284 8.88889 11.3779V73.3334H48.8889V11.3779C48.8889 10.1284 48.3925 8.9301 47.509 8.0466C46.6255 7.1631 45.4272 6.66675 44.1778 6.66675V6.66675ZM44.4444 68.889H37.7778V62.2223H20V68.889H13.3333V11.3779C13.3333 11.3428 13.3402 11.3082 13.3536 11.2758C13.367 11.2435 13.3867 11.2141 13.4114 11.1893C13.4362 11.1645 13.4656 11.1449 13.4979 11.1315C13.5303 11.1181 13.565 11.1112 13.6 11.1112H44.1778C44.2128 11.1112 44.2475 11.1181 44.2798 11.1315C44.3122 11.1449 44.3416 11.1645 44.3663 11.1893C44.3911 11.2141 44.4107 11.2435 44.4241 11.2758C44.4375 11.3082 44.4444 11.3428 44.4444 11.3779V68.889Z" fill="black"/>
<path d="M17.7778 17.7778H22.2222V22.2223H17.7778V17.7778Z" fill="black"/>
<path d="M26.6667 17.7778H31.1111V22.2223H26.6667V17.7778Z" fill="black"/>
<path d="M35.5555 17.7778H40V22.2223H35.5555V17.7778Z" fill="black"/>
<path d="M17.7778 28.8889H22.2222V33.3334H17.7778V28.8889Z" fill="black"/>
<path d="M26.6667 28.8889H31.1111V33.3334H26.6667V28.8889Z" fill="black"/>
<path d="M35.5555 28.8889H40V33.3334H35.5555V28.8889Z" fill="black"/>
<path d="M17.7778 40H22.2222V44.4444H17.7778V40Z" fill="black"/>
<path d="M26.6667 40H31.1111V44.4444H26.6667V40Z" fill="black"/>
<path d="M35.5555 40H40V44.4444H35.5555V40Z" fill="black"/>
<path d="M17.7778 51.1111H22.2222V55.5555H17.7778V51.1111Z" fill="black"/>
<path d="M26.6667 51.1111H31.1111V55.5555H26.6667V51.1111Z" fill="black"/>
<path d="M35.5555 51.1111H40V55.5555H35.5555V51.1111Z" fill="black"/>
<path d="M51.1111 28.8889H55.5556V33.3334H51.1111V28.8889Z" fill="black"/>
<path d="M60 28.8889H64.4444V33.3334H60V28.8889Z" fill="black"/>
<path d="M51.1111 40H55.5556V44.4444H51.1111V40Z" fill="black"/>
<path d="M60 40H64.4444V44.4444H60V40Z" fill="black"/>
<path d="M51.1111 51.1111H55.5556V55.5555H51.1111V51.1111Z" fill="black"/>
<path d="M60 51.1111H64.4444V55.5555H60V51.1111Z" fill="black"/>
<path d="M68.8889 29.8445V68.889H51.1111V73.3334H73.3333V28.6001C71.9172 29.2204 70.4212 29.6393 68.8889 29.8445V29.8445Z" fill="black"/>
<path d="M66.6667 24.4444C72.8032 24.4444 77.7778 19.4698 77.7778 13.3333C77.7778 7.19678 72.8032 2.22217 66.6667 2.22217C60.5302 2.22217 55.5555 7.19678 55.5555 13.3333C55.5555 19.4698 60.5302 24.4444 66.6667 24.4444Z" fill="black"/>
</svg>
