<svg width="105" height="95" viewBox="0 0 105 95" fill="none" xmlns="http://www.w3.org/2000/svg">
<path d="M39.5341 27.114L34.2937 43.829C33.419 46.6044 34.8763 49.5867 37.6047 50.5939C40.5007 51.6756 43.7133 50.1329 44.6897 47.2055L50.3163 30.4367C50.7162 29.2595 51.981 28.6221 53.1699 29.0142C54.3588 29.4064 54.9844 30.679 54.5923 31.8678L53.4043 35.3916L79.6455 39.5724L64.9574 17.4554L64.8754 17.5098L64.2241 17.5204L52.1018 17.7211C49.547 17.7634 47.0456 18.5468 44.9135 19.9627C42.3598 21.6587 40.4598 24.1866 39.5341 27.114ZM51.883 39.9131L48.954 48.6445C47.1777 53.9769 41.3262 56.7824 36.041 54.8229C31.0676 52.9771 28.4094 47.551 29.998 42.4952L34.5088 28.1387C32.7687 28.4671 31.1099 29.1467 29.6221 30.1347C27.412 31.5856 25.7039 33.6653 24.6738 36.105L19.9736 47.3293L37.4001 73.5699L40.7036 71.376L57.8989 74.0353C61.5876 74.6074 65.0281 72.0862 65.6002 68.3976C65.77 67.2551 65.6511 66.1355 65.2979 65.1208L68.503 65.6257C72.1799 66.2056 75.64 63.6883 76.2199 60.0114C76.3658 59.0873 76.309 58.1628 76.096 57.3083C79.38 57.3219 82.2625 54.9518 82.7872 51.5985C83.3671 47.9216 80.8498 44.4615 77.1729 43.8817L51.883 39.9131ZM16.225 49.8188L4.979 57.2873L22.4055 83.5279C23.7825 85.6014 26.5702 86.1641 28.6436 84.7871L32.3923 82.2976C34.4658 80.9206 35.0285 78.1329 33.6514 76.0594L16.225 49.8188ZM28.0285 79.7937C26.9976 80.4783 25.594 80.195 24.9094 79.1641C24.2248 78.1332 24.5081 76.7296 25.539 76.045C26.5699 75.3604 27.9734 75.6437 28.658 76.6746C29.3427 77.7055 29.0593 79.109 28.0285 79.7937ZM68.7061 14.9659L86.1326 41.2064C87.5096 43.2799 90.2973 43.8426 92.3707 42.4656L96.1194 39.9761C98.1929 38.5991 98.7555 35.8114 97.3785 33.7379L79.952 7.49736L68.7061 14.9659ZM92.3851 34.3531C93.0697 35.384 92.7864 36.7876 91.7556 37.4722C90.7247 38.1568 89.3211 37.8735 88.6365 36.8426C87.9519 35.8117 88.2352 34.4081 89.2661 33.7235C90.2969 33.0389 91.7005 33.3222 92.3851 34.3531Z" fill="#EAA94B"/>
</svg>
