<svg width="57" height="64" viewBox="0 0 57 64" fill="none" xmlns="http://www.w3.org/2000/svg">
<path d="M0.621179 16.4562C-1.05227 11.256 0.709975 5.33856 5.24993 2.12598C9.78987 -1.08659 15.6959 -0.556094 19.6393 3.0276C20.8734 4.15917 20.7413 6.21513 19.398 7.16455L4.3688 17.7745C3.00272 18.7216 1.1494 18.075 0.621179 16.4562ZM27.3213 20.4907C27.9251 20.4907 28.5042 20.7306 28.9312 21.1576C29.3582 21.5845 29.5981 22.1637 29.5981 22.7675V32.9334L35.4153 36.8108C35.9177 37.146 36.2664 37.667 36.3847 38.2592C36.503 38.8514 36.3811 39.4664 36.046 39.9688C35.7109 40.4712 35.1899 40.8199 34.5976 40.9381C34.0054 41.0564 33.3905 40.9346 32.8881 40.5994L26.0576 36.0458C25.7404 35.8343 25.4814 35.5464 25.3044 35.2086C25.1273 34.8709 25.038 34.4941 25.0445 34.1128V22.7675C25.0445 22.1637 25.2843 21.5845 25.7113 21.1576C26.1383 20.7306 26.7174 20.4907 27.3213 20.4907V20.4907Z" fill="white"/>
<path d="M43.7302 51.4097C46.4354 49.1683 48.6122 46.3571 50.1051 43.177C51.5979 39.9969 52.37 36.5262 52.3661 33.0131C52.3661 19.8099 41.6629 9.10667 28.4597 9.10667C15.2565 9.10667 4.55322 19.8099 4.55322 33.0131C4.54913 36.2717 5.21315 39.4964 6.50426 42.4883C7.79537 45.4801 9.68616 48.1755 12.0598 50.4079L6.17203 55.5011C2.99816 58.2583 4.80367 63.75 8.89053 63.75H45.7406C49.8298 63.75 51.658 58.2583 48.4591 55.5011L43.7302 51.4074V51.4097ZM28.4597 50.0892C23.9308 50.0892 19.5875 48.2901 16.3851 45.0877C13.1827 41.8853 11.3836 37.542 11.3836 33.0131C11.3836 28.4843 13.1827 24.1409 16.3851 20.9385C19.5875 17.7362 23.9308 15.9371 28.4597 15.9371C32.9885 15.9371 37.3319 17.7362 40.5343 20.9385C43.7366 24.1409 45.5357 28.4843 45.5357 33.0131C45.5357 37.542 43.7366 41.8853 40.5343 45.0877C37.3319 48.2901 32.9885 50.0892 28.4597 50.0892ZM51.6694 2.12598C56.2094 5.33628 57.9716 11.256 56.2982 16.4562C55.77 18.0727 53.9166 18.7216 52.5506 17.7745L37.5236 7.16455C36.178 6.2174 36.0437 4.15917 37.28 3.0276C41.2234 -0.556094 47.1295 -1.08659 51.6694 2.12598V2.12598Z" fill="white"/>
</svg>
