<svg width="80" height="80" viewBox="0 0 80 80" fill="none" xmlns="http://www.w3.org/2000/svg">
<path d="M9.04393 52.7132C20.2478 63.9145 37.9024 64.6958 50.0223 55.0865L52.5476 57.6092L50.4503 59.7052L67.5754 76.829C66.9381 77.837 66.6621 78.613 66.9808 78.929L67.9181 79.865C69.4421 81.3917 81.39 69.4398 79.866 67.9158L78.9287 66.9811C78.6127 66.6638 77.838 66.9371 76.8327 67.5744L59.7048 50.4506L57.6089 52.5466L55.0849 50.0226C64.6928 37.9014 63.9128 20.2455 52.7129 9.04293C40.6543 -3.01431 21.1025 -3.01431 9.04393 9.04293C-3.01598 21.1042 -3.01331 40.6547 9.04393 52.7132ZM12.6826 12.6842C22.7305 2.63498 39.0277 2.63498 49.0729 12.6842C59.1222 22.7308 59.1222 39.028 49.0729 49.0746C39.025 59.1252 22.7331 59.1225 12.6826 49.0746C2.63731 39.0253 2.63465 22.7335 12.6826 12.6842Z" fill="#EAA94B"/>
<path d="M8.91059 29.2029C10.0182 32.1451 11.7405 34.8174 13.9626 37.0415C22.6465 45.7267 36.7304 45.7267 45.4183 37.0375C49.0902 33.3766 51.3612 28.5435 51.8356 23.3802C54.8436 31.3122 53.1689 40.6148 46.7823 47.0014C38.0957 55.688 24.0118 55.688 15.3252 47.0014C10.4532 42.1334 8.3186 35.5655 8.91059 29.2029Z" fill="#EAA94B"/>
</svg>
